# xmcd CD database file
#
# Track frame offsets:
#	150
#	53627
#	117754
#	172881
#
# Disc length: 3026 seconds
#
# Revision: 1
# Processed by: cddbd v1.5.2PL0 Copyright (c) Steve Scherf et al.
# Submitted via: CDex 1.70beta2
#
DISCID=260bd004
DTITLE=Christian Maier - In The Beginning
DYEAR=1991
DGENRE=Instrumental
TTITLE0=In The Beginning
TTITLE1=Deep Silence
TTITLE2=Floating
TTITLE3=Good Feelings
EXTD=YEAR: 1991
EXTT0=
EXTT1=
EXTT2=
EXTT3=
PLAYORDER=
